<?xml version="1.0" encoding="UTF-8" standalone="no"?>
<svg
   xmlns:dc="http://purl.org/dc/elements/1.1/"
   xmlns:cc="http://creativecommons.org/ns#"
   xmlns:rdf="http://www.w3.org/1999/02/22-rdf-syntax-ns#"
   xmlns:svg="http://www.w3.org/2000/svg"
   xmlns="http://www.w3.org/2000/svg"
   viewBox="0 0 298.66666 298.66666"
   height="298.66666"
   width="298.66666"
   xml:space="preserve"
   id="svg2"
   version="1.1"><metadata
     id="metadata8"><rdf:RDF><cc:Work
         rdf:about=""><dc:format>image/svg+xml</dc:format><dc:type
           rdf:resource="http://purl.org/dc/dcmitype/StillImage" /></cc:Work></rdf:RDF></metadata><defs
     id="defs6"><clipPath
       id="clipPath20"
       clipPathUnits="userSpaceOnUse"><path
         id="path18"
         d="M 36,36 H 188 V 188 H 36 Z" /></clipPath><clipPath
       id="clipPath30"
       clipPathUnits="userSpaceOnUse"><path
         id="path28"
         d="m 54.29651,59.45104 h 105.0979 v 105.0979 H 54.29651 Z" /></clipPath><clipPath
       id="clipPath40"
       clipPathUnits="userSpaceOnUse"><path
         id="path38"
         d="m 111.7004,84.82563 v 54.34877 h 54.3488 V 84.82563 Z" /></clipPath><clipPath
       id="clipPath46"
       clipPathUnits="userSpaceOnUse"><path
         id="path44"
         d="M 0,0 H 224 V 224 H 0 Z" /></clipPath><clipPath
       id="clipPath56"
       clipPathUnits="userSpaceOnUse"><path
         id="path54"
         d="m 129.9926,128.9171 h 18.06274 v 18.06274 H 129.9926 Z" /></clipPath><clipPath
       id="clipPath66"
       clipPathUnits="userSpaceOnUse"><path
         id="path64"
         d="m 155.524,106.5313 h 10.93744 v 10.93744 H 155.524 Z" /></clipPath><clipPath
       id="clipPath76"
       clipPathUnits="userSpaceOnUse"><path
         id="path74"
         d="m 140.7426,131.4483 h 5.00024 v 5.00024 h -5.00024 z" /></clipPath></defs><g
     transform="matrix(1.3333333,0,0,-1.3333333,0,298.66667)"
     id="g10"><g
       id="g12" /><g
       id="g14"><g
         clip-path="url(#clipPath20)"
         id="g16"><path
           id="path22"
           style="fill:#ef6d3f;fill-opacity:1;fill-rule:nonzero;stroke:none"
           d="M 37,37 H 187 V 187 H 37 Z" /></g></g><g
       id="g24"><g
         clip-path="url(#clipPath30)"
         id="g26"><path
           id="path32"
           style="fill:#ffffff;fill-opacity:1;fill-rule:nonzero;stroke:none"
           d="m 143.2961,148.4506 c 20.1311,-20.1311 20.1311,-52.77009 0,-72.90121 -20.1311,-20.13113 -52.77012,-20.13113 -72.90125,0 -20.13112,20.13112 -20.13112,52.77011 0,72.90121 20.13112,20.1312 52.77015,20.1312 72.90125,0 z" /></g></g><g
       id="g34"><g
         clip-path="url(#clipPath40)"
         id="g36"><g
           clip-path="url(#clipPath46)"
           id="g42"><path
             id="path48"
             style="fill:#ef6d3f;fill-opacity:1;fill-rule:nonzero;stroke:none"
             d="m 112.7004,112 52.3488,26.1744 V 85.82563 Z" /></g></g></g><g
       id="g50"><g
         clip-path="url(#clipPath56)"
         id="g52"><path
           id="path58"
           style="fill:#ef6d3f;fill-opacity:1;fill-rule:nonzero;stroke:none"
           d="m 144.7029,143.6274 c 3.1364,-3.1364 3.1368,-8.2212 0,-11.3579 -3.1364,-3.1364 -8.2211,-3.1367 -11.3579,0 -3.1364,3.1364 -3.1367,8.2212 0,11.3579 3.1364,3.1364 8.2212,3.1367 11.3579,0 z" /></g></g><g
       id="g60"><g
         clip-path="url(#clipPath66)"
         id="g62"><path
           id="path68"
           style="fill:#2a74cf;fill-opacity:1;fill-rule:nonzero;stroke:none"
           d="m 164.1526,115.1599 c 1.7451,-1.7456 1.7451,-4.5747 0,-6.3198 -1.7456,-1.7451 -4.5747,-1.7451 -6.3198,0 -1.7451,1.7456 -1.7451,4.5747 0,6.3198 1.7455,1.7451 4.5746,1.7451 6.3198,0 z" /></g></g><g
       id="g70"><g
         clip-path="url(#clipPath76)"
         id="g72"><path
           id="path78"
           style="fill:#ffffff;fill-opacity:1;fill-rule:nonzero;stroke:none"
           d="m 144.3033,135.0091 c 0.586,-0.5862 0.586,-1.5354 0,-2.1213 -0.5861,-0.586 -1.5354,-0.586 -2.1213,0 -0.5859,0.5861 -0.5859,1.5354 0,2.1213 0.5862,0.5859 1.5354,0.5859 2.1213,0 z" /></g></g></g></svg>