<?xml version="1.0" encoding="UTF-8" standalone="no"?>
<svg
   xmlns:dc="http://purl.org/dc/elements/1.1/"
   xmlns:cc="http://creativecommons.org/ns#"
   xmlns:rdf="http://www.w3.org/1999/02/22-rdf-syntax-ns#"
   xmlns:svg="http://www.w3.org/2000/svg"
   xmlns="http://www.w3.org/2000/svg"
   viewBox="0 0 436.73227 298.66666"
   height="298.66666"
   width="436.73227"
   xml:space="preserve"
   id="svg2"
   version="1.1"><metadata
     id="metadata8"><rdf:RDF><cc:Work
         rdf:about=""><dc:format>image/svg+xml</dc:format><dc:type
           rdf:resource="http://purl.org/dc/dcmitype/StillImage" /></cc:Work></rdf:RDF></metadata><defs
     id="defs6"><clipPath
       id="clipPath20"
       clipPathUnits="userSpaceOnUse"><path
         id="path18"
         d="m 219.6968,88.16668 h 71.66094 v 47.66667 H 219.6968 Z" /></clipPath><clipPath
       id="clipPath34"
       clipPathUnits="userSpaceOnUse"><path
         id="path32"
         d="m 220.5054,100 h 70.04388 v 24 H 220.5054 Z" /></clipPath><clipPath
       id="clipPath48"
       clipPathUnits="userSpaceOnUse"><path
         id="path46"
         d="m 75.19678,36 h 152 v 152 h -152 z" /></clipPath><clipPath
       id="clipPath58"
       clipPathUnits="userSpaceOnUse"><path
         id="path56"
         d="M 37.54297,87.66668 H 78.1032 v 48.66667 H 37.54297 Z" /></clipPath><clipPath
       id="clipPath72"
       clipPathUnits="userSpaceOnUse"><path
         id="path70"
         d="m 74.04239,88.07309 v 47.85381 h 5 V 88.07309 Z" /></clipPath><clipPath
       id="clipPath78"
       clipPathUnits="userSpaceOnUse"><path
         id="path76"
         d="M 0,0 H 327.5492 V 224 H 0 Z" /></clipPath><clipPath
       id="clipPath90"
       clipPathUnits="userSpaceOnUse"><path
         id="path88"
         d="m 223.7924,88.07309 v 47.85381 h 5 V 88.07309 Z" /></clipPath><clipPath
       id="clipPath96"
       clipPathUnits="userSpaceOnUse"><path
         id="path94"
         d="M 0,0 H 327.5492 V 224 H 0 Z" /></clipPath><clipPath
       id="clipPath108"
       clipPathUnits="userSpaceOnUse"><path
         id="path106"
         d="m 36.4595,95.171 h 42.72713 v 33.658 H 36.4595 Z" /></clipPath><clipPath
       id="clipPath130"
       clipPathUnits="userSpaceOnUse"><path
         id="path128"
         d="m 93.49329,59.45104 h 105.0979 v 105.0979 H 93.49329 Z" /></clipPath><clipPath
       id="clipPath140"
       clipPathUnits="userSpaceOnUse"><path
         id="path138"
         d="m 150.8972,84.82563 v 54.34877 h 54.3487 V 84.82563 Z" /></clipPath><clipPath
       id="clipPath146"
       clipPathUnits="userSpaceOnUse"><path
         id="path144"
         d="M 0,0 H 327.5492 V 224 H 0 Z" /></clipPath><clipPath
       id="clipPath156"
       clipPathUnits="userSpaceOnUse"><path
         id="path154"
         d="m 169.1894,128.9171 h 18.06274 v 18.06274 H 169.1894 Z" /></clipPath><clipPath
       id="clipPath166"
       clipPathUnits="userSpaceOnUse"><path
         id="path164"
         d="m 194.7207,106.5313 h 10.93744 v 10.93744 H 194.7207 Z" /></clipPath><clipPath
       id="clipPath176"
       clipPathUnits="userSpaceOnUse"><path
         id="path174"
         d="m 179.9393,131.4483 h 5.00024 v 5.00024 h -5.00024 z" /></clipPath></defs><g
     transform="matrix(1.3333333,0,0,-1.3333333,0,298.66667)"
     id="g10"><g
       id="g12" /><g
       id="g14"><g
         clip-path="url(#clipPath20)"
         id="g16"><path
           id="path22"
           style="fill:#ffffff;fill-opacity:1;fill-rule:nonzero;stroke:none"
           d="m 221.1968,89.66668 h 68.66094 v 44.66667 H 221.1968 Z" /><g
           transform="matrix(1,0,0,-1,221.1968,134.3333)"
           id="g24"><path
             id="path26"
             style="fill:none;stroke:#bfbfbf;stroke-width:1;stroke-linecap:butt;stroke-linejoin:miter;stroke-miterlimit:4;stroke-dasharray:none;stroke-opacity:1"
             d="M 0,0 H 68.66094 V 44.66667 H 0 Z" /></g></g></g><g
       id="g28"><g
         clip-path="url(#clipPath34)"
         id="g30"><g
           transform="translate(228.8213,110.0209)"
           id="g36"><text
             id="text40"
             style="font-style:italic;font-variant:normal;font-size:7.24330282px;font-family:HoeflerText;-inkscape-font-specification:HoeflerText-Italic;writing-mode:lr-tb;fill:#000000;fill-opacity:1;fill-rule:nonzero;stroke:none"
             transform="scale(1,-1)"><tspan
               id="tspan38"
               y="0"
               x="0 3.397109 6.308917 9.7060261 13.103135 16.500244 19.412052 22.80916 26.20627 27.691147 31.088257 34.000065 37.397175 40.794281 44.191391 47.103199 50.500309">01000100 01000101</tspan></text>
</g></g></g><g
       id="g42"><g
         clip-path="url(#clipPath48)"
         id="g44"><path
           id="path50"
           style="fill:#ef6d3f;fill-opacity:1;fill-rule:nonzero;stroke:none"
           d="m 76.19678,37 h 150 v 150 h -150 z" /></g></g><g
       id="g52"><g
         clip-path="url(#clipPath58)"
         id="g54"><path
           id="path60"
           style="fill:#ffffff;fill-opacity:1;fill-rule:nonzero;stroke:none"
           d="M 39.04297,89.16668 H 76.6032 v 45.66667 H 39.04297 Z" /><g
           transform="matrix(1,0,0,-1,39.04297,134.8333)"
           id="g62"><path
             id="path64"
             style="fill:none;stroke:#bfbfbf;stroke-width:1;stroke-linecap:butt;stroke-linejoin:miter;stroke-miterlimit:4;stroke-dasharray:none;stroke-opacity:1"
             d="M 0,0 H 37.56023 V 45.66667 H 0 Z" /></g></g></g><g
       id="g66"><g
         clip-path="url(#clipPath72)"
         id="g68"><g
           clip-path="url(#clipPath78)"
           id="g74"><g
             transform="matrix(0,1,1,0,76.54239,89.07309)"
             id="g80"><path
               id="path82"
               style="fill:none;stroke:#000000;stroke-width:3;stroke-linecap:butt;stroke-linejoin:miter;stroke-miterlimit:4;stroke-dasharray:none;stroke-opacity:1"
               d="M 0,0 H 45.85382" /></g></g></g></g><g
       id="g84"><g
         clip-path="url(#clipPath90)"
         id="g86"><g
           clip-path="url(#clipPath96)"
           id="g92"><g
             transform="matrix(0,1,1,0,226.2924,89.07309)"
             id="g98"><path
               id="path100"
               style="fill:none;stroke:#000000;stroke-width:3;stroke-linecap:butt;stroke-linejoin:miter;stroke-miterlimit:4;stroke-dasharray:none;stroke-opacity:1"
               d="M 0,0 H 45.85382" /></g></g></g></g><g
       id="g102"><g
         clip-path="url(#clipPath108)"
         id="g104"><g
           transform="translate(42.07306,107.653)"
           id="g110"><text
             id="text114"
             style="font-variant:normal;font-weight:300;font-size:18px;font-family:Copperplate;-inkscape-font-specification:Copperplate-Light;writing-mode:lr-tb;fill:#000000;fill-opacity:1;fill-rule:nonzero;stroke:none"
             transform="scale(1,-1)"><tspan
               id="tspan112"
               y="0"
               x="0">C</tspan></text>
</g><g
           transform="translate(42.07306,107.653)"
           id="g116" /><g
           transform="translate(42.07306,107.653)"
           id="g118"><text
             id="text122"
             style="font-variant:normal;font-weight:300;font-size:18px;font-family:Copperplate;-inkscape-font-specification:Copperplate-Light;writing-mode:lr-tb;fill:#000000;fill-opacity:1;fill-rule:nonzero;stroke:none"
             transform="matrix(1,0,0,-1,18.504,0)"><tspan
               id="tspan120"
               y="0"
               x="0">O</tspan></text>
</g></g></g><g
       id="g124"><g
         clip-path="url(#clipPath130)"
         id="g126"><path
           id="path132"
           style="fill:#ffffff;fill-opacity:1;fill-rule:nonzero;stroke:none"
           d="m 182.4929,148.4506 c 20.1311,-20.1311 20.1311,-52.77009 0,-72.90121 -20.1311,-20.13113 -52.7701,-20.13113 -72.9013,0 -20.1311,20.13112 -20.1311,52.77011 0,72.90121 20.1312,20.1312 52.7701,20.1312 72.9013,0 z" /></g></g><g
       id="g134"><g
         clip-path="url(#clipPath140)"
         id="g136"><g
           clip-path="url(#clipPath146)"
           id="g142"><path
             id="path148"
             style="fill:#ef6d3f;fill-opacity:1;fill-rule:nonzero;stroke:none"
             d="m 151.8972,112 52.3487,26.1744 V 85.82563 Z" /></g></g></g><g
       id="g150"><g
         clip-path="url(#clipPath156)"
         id="g152"><path
           id="path158"
           style="fill:#ef6d3f;fill-opacity:1;fill-rule:nonzero;stroke:none"
           d="m 183.8997,143.6274 c 3.1364,-3.1364 3.1367,-8.2212 0,-11.3579 -3.1364,-3.1364 -8.2212,-3.1367 -11.3579,0 -3.1364,3.1364 -3.1367,8.2212 0,11.3579 3.1364,3.1364 8.2212,3.1367 11.3579,0 z" /></g></g><g
       id="g160"><g
         clip-path="url(#clipPath166)"
         id="g162"><path
           id="path168"
           style="fill:#2a74cf;fill-opacity:1;fill-rule:nonzero;stroke:none"
           d="m 203.3493,115.1599 c 1.7452,-1.7456 1.7452,-4.5747 0,-6.3198 -1.7455,-1.7451 -4.5746,-1.7451 -6.3197,0 -1.7451,1.7456 -1.7451,4.5747 0,6.3198 1.7455,1.7451 4.5746,1.7451 6.3197,0 z" /></g></g><g
       id="g170"><g
         clip-path="url(#clipPath176)"
         id="g172"><path
           id="path178"
           style="fill:#ffffff;fill-opacity:1;fill-rule:nonzero;stroke:none"
           d="m 183.5001,135.0091 c 0.586,-0.5862 0.586,-1.5354 0,-2.1213 -0.5862,-0.586 -1.5354,-0.586 -2.1213,0 -0.586,0.5861 -0.586,1.5354 0,2.1213 0.5862,0.5859 1.5354,0.5859 2.1213,0 z" /></g></g></g></svg>