<svg id="Layer_1" data-name="Layer 1" xmlns="http://www.w3.org/2000/svg" xmlns:xlink="http://www.w3.org/1999/xlink" viewBox="0 0 150 150"><defs><clipPath id="clip-path"><circle cx="359.65" cy="-575.67" r="75" style="fill:none"/></clipPath><clipPath id="clip-path-3"><circle cx="358.65" cy="-639.67" r="75" style="fill:none"/></clipPath><clipPath id="clip-path-4"><rect x="3.1" y="34.84" width="139.21" height="81.9" style="fill:none"/></clipPath></defs><circle cx="75" cy="75" r="75" style="fill:#f4f0ea"/><g style="clip-path:url(#clip-path-4)"><path d="M27.86,79.56h0a3.75,3.75,0,0,1-3.74-3.76A18.47,18.47,0,0,1,57.72,65.25a3.75,3.75,0,0,1-6.14,4.3,11,11,0,0,0-20,6.27,3.76,3.76,0,0,1-3.75,3.74" style="fill:#00b5af"/><path d="M105,94a3.74,3.74,0,0,1-3.75-3.75V61.77a3.75,3.75,0,1,1,7.5,0V90.24A3.75,3.75,0,0,1,105,94" style="fill:#00b5af"/><path d="M92.43,94.07A3.76,3.76,0,0,1,89,91.93L75.14,62.75a3.75,3.75,0,1,1,6.77-3.23L95.81,88.7a3.75,3.75,0,0,1-1.77,5,3.71,3.71,0,0,1-1.61.37" style="fill:#00b5af"/><path d="M64.56,94.07A3.71,3.71,0,0,1,63,93.7a3.76,3.76,0,0,1-1.78-5L75.08,59.52a3.75,3.75,0,0,1,6.77,3.23L67.94,91.93a3.74,3.74,0,0,1-3.38,2.14" style="fill:#ffdf00"/><path d="M88.63,86.08H68.36a3.75,3.75,0,0,1,0-7.5H88.63a3.75,3.75,0,0,1,0,7.5" style="fill:#006d5d"/><path d="M121.23,89.59A4.63,4.63,0,1,1,116.6,85a4.62,4.62,0,0,1,4.63,4.62" style="fill:#00ac89"/><path d="M64.56,94.07A3.71,3.71,0,0,1,63,93.7a3.76,3.76,0,0,1-1.78-5L75.08,59.52a3.75,3.75,0,0,1,6.77,3.23L67.94,91.93a3.74,3.74,0,0,1-3.38,2.14" style="fill:#00ac89"/><path d="M117.56,65.15H92.39a3.75,3.75,0,1,1,0-7.5h25.17a3.75,3.75,0,0,1,0,7.5" style="fill:#006d5d"/><path d="M42.54,94A18.5,18.5,0,0,1,24.11,75.89a3.75,3.75,0,0,1,3.67-3.83h.08a3.75,3.75,0,0,1,3.75,3.67,11,11,0,0,0,4.68,8.78,11,11,0,0,0,15.29-2.7,3.75,3.75,0,1,1,6.14,4.3,18.34,18.34,0,0,1-11.92,7.6,18.81,18.81,0,0,1-3.26.29" style="fill:#006d5d"/></g></svg>